<?xml version="1.0" encoding="UTF-8" standalone="no"?>
<svg
   xmlns:dc="http://purl.org/dc/elements/1.1/"
   xmlns:cc="http://creativecommons.org/ns#"
   xmlns:rdf="http://www.w3.org/1999/02/22-rdf-syntax-ns#"
   xmlns:svg="http://www.w3.org/2000/svg"
   xmlns="http://www.w3.org/2000/svg"
   xmlns:sodipodi="http://sodipodi.sourceforge.net/DTD/sodipodi-0.dtd"
   xmlns:inkscape="http://www.inkscape.org/namespaces/inkscape"
   width="244.35677mm"
   height="24.581619mm"
   viewBox="0 0 244.35677 24.581618"
   version="1.1"
   id="svg8"
   inkscape:version="1.0.1 (0767f8302a, 2020-10-17)"
   sodipodi:docname="r21-logo-text.svg">
  <defs
     id="defs2" />
  <sodipodi:namedview
     id="base"
     pagecolor="#ffffff"
     bordercolor="#666666"
     borderopacity="1.0"
     inkscape:pageopacity="0.0"
     inkscape:pageshadow="2"
     inkscape:zoom="0.5"
     inkscape:cx="547.34679"
     inkscape:cy="-67.779507"
     inkscape:document-units="mm"
     inkscape:current-layer="layer1"
     inkscape:document-rotation="0"
     showgrid="false"
     showguides="true"
     inkscape:guide-bbox="true"
     inkscape:window-width="1330"
     inkscape:window-height="921"
     inkscape:window-x="86"
     inkscape:window-y="106"
     inkscape:window-maximized="0"
     fit-margin-top="0"
     fit-margin-left="0"
     fit-margin-right="0"
     fit-margin-bottom="0" />
  <metadata
     id="metadata5">
    <rdf:RDF>
      <cc:Work
         rdf:about="">
        <dc:format>image/svg+xml</dc:format>
        <dc:type
           rdf:resource="http://purl.org/dc/dcmitype/StillImage" />
        <dc:title />
      </cc:Work>
    </rdf:RDF>
  </metadata>
  <g
     inkscape:label="Ebene 1"
     inkscape:groupmode="layer"
     id="layer1"
     transform="translate(-29.166008,-163.46516)">
    <rect
       style="fill:#630a10;fill-opacity:1;stroke:#fcf0c8;stroke-width:0.11118;stroke-opacity:1"
       id="rect1064"
       width="244.24559"
       height="24.47044"
       x="29.221598"
       y="163.52075" />
    <g
       aria-label="RAILROAD21"
       transform="scale(1.3236862,0.75546604)"
       id="text1068"
       style="font-style:normal;font-variant:normal;font-weight:bold;font-stretch:normal;font-size:25.2993px;line-height:1.25;font-family:sans-serif;-inkscape-font-specification:'sans-serif, Bold';font-variant-ligatures:normal;font-variant-caps:normal;font-variant-numeric:normal;font-variant-east-asian:normal;letter-spacing:3.38153px;fill:#fcf0c8;fill-opacity:1;stroke-width:0.350226">
      <path
         d="m 34.589993,233.18421 q 0.802956,0.27177 1.5565,1.1612 0.765896,0.88943 1.531793,2.44593 l 2.532401,5.0401 h -2.680639 l -2.359456,-4.73127 q -0.914135,-1.85298 -1.778857,-2.45828 -0.852369,-0.60531 -2.33475,-0.60531 h -2.717698 v 7.79486 h -2.495341 v -18.44329 h 5.633047 q 3.162412,0 4.718912,1.32179 1.5565,1.32179 1.5565,3.99007 0,1.7418 -0.815309,2.89065 -0.802957,1.14884 -2.347103,1.59355 z m -6.250706,-7.74544 v 6.54719 h 3.137706 q 1.803563,0 2.717698,-0.82767 0.926488,-0.84001 0.926488,-2.45828 0,-1.61826 -0.926488,-2.43357 -0.914135,-0.82767 -2.717698,-0.82767 z"
         style="font-style:normal;font-variant:normal;font-weight:normal;font-stretch:normal;font-size:25.2993px;font-family:'GFS Baskerville';-inkscape-font-specification:'GFS Baskerville';font-variant-ligatures:normal;font-variant-caps:normal;font-variant-numeric:normal;font-variant-east-asian:normal;fill:#fcf0c8;fill-opacity:1;stroke-width:0.350226"
         id="path2764" />
      <path
         d="m 51.942963,225.84643 -3.384769,9.17841 h 6.781892 z m -1.408261,-2.45828 h 2.828876 l 7.028956,18.44329 h -2.594166 l -1.680032,-4.73127 H 47.80465 l -1.680031,4.73127 h -2.631226 z"
         style="font-style:normal;font-variant:normal;font-weight:normal;font-stretch:normal;font-size:25.2993px;font-family:'GFS Baskerville';-inkscape-font-specification:'GFS Baskerville';font-variant-ligatures:normal;font-variant-caps:normal;font-variant-numeric:normal;font-variant-east-asian:normal;fill:#fcf0c8;fill-opacity:1;stroke-width:0.350226"
         id="path2766" />
      <path
         d="m 66.454702,223.38815 h 2.495341 v 18.44329 h -2.495341 z"
         style="font-style:normal;font-variant:normal;font-weight:normal;font-stretch:normal;font-size:25.2993px;font-family:'GFS Baskerville';-inkscape-font-specification:'GFS Baskerville';font-variant-ligatures:normal;font-variant-caps:normal;font-variant-numeric:normal;font-variant-east-asian:normal;fill:#fcf0c8;fill-opacity:1;stroke-width:0.350226"
         id="path2768" />
      <path
         d="m 77.297548,223.38815 h 2.495341 v 16.34325 h 8.980757 v 2.10004 H 77.297548 Z"
         style="font-style:normal;font-variant:normal;font-weight:normal;font-stretch:normal;font-size:25.2993px;font-family:'GFS Baskerville';-inkscape-font-specification:'GFS Baskerville';font-variant-ligatures:normal;font-variant-caps:normal;font-variant-numeric:normal;font-variant-east-asian:normal;fill:#fcf0c8;fill-opacity:1;stroke-width:0.350226"
         id="path2770" />
      <path
         d="m 103.50774,233.18421 q 0.80296,0.27177 1.5565,1.1612 0.7659,0.88943 1.53179,2.44593 l 2.5324,5.0401 h -2.68063 l -2.35946,-4.73127 q -0.91414,-1.85298 -1.77886,-2.45828 -0.85237,-0.60531 -2.334747,-0.60531 h -2.717698 v 7.79486 h -2.495342 v -18.44329 h 5.633047 q 3.16241,0 4.71891,1.32179 1.5565,1.32179 1.5565,3.99007 0,1.7418 -0.81531,2.89065 -0.80295,1.14884 -2.3471,1.59355 z m -6.250705,-7.74544 v 6.54719 h 3.137705 q 1.80356,0 2.7177,-0.82767 0.92649,-0.84001 0.92649,-2.45828 0,-1.61826 -0.92649,-2.43357 -0.91414,-0.82767 -2.7177,-0.82767 z"
         style="font-style:normal;font-variant:normal;font-weight:normal;font-stretch:normal;font-size:25.2993px;font-family:'GFS Baskerville';-inkscape-font-specification:'GFS Baskerville';font-variant-ligatures:normal;font-variant-caps:normal;font-variant-numeric:normal;font-variant-east-asian:normal;fill:#fcf0c8;fill-opacity:1;stroke-width:0.350226"
         id="path2772" />
      <path
         d="m 123.22017,225.08053 q -2.7177,0 -4.32361,2.02592 -1.59356,2.02592 -1.59356,5.52187 0,3.4836 1.59356,5.50952 1.60591,2.02592 4.32361,2.02592 2.71769,0 4.2989,-2.02592 1.59356,-2.02592 1.59356,-5.50952 0,-3.49595 -1.59356,-5.52187 -1.58121,-2.02592 -4.2989,-2.02592 z m 0,-2.02592 q 3.87889,0 6.20129,2.60652 2.3224,2.59417 2.3224,6.96719 0,4.36067 -2.3224,6.96719 -2.3224,2.59417 -6.20129,2.59417 -3.89125,0 -6.226,-2.59417 -2.3224,-2.59416 -2.3224,-6.96719 0,-4.37302 2.3224,-6.96719 2.33475,-2.60652 6.226,-2.60652 z"
         style="font-style:normal;font-variant:normal;font-weight:normal;font-stretch:normal;font-size:25.2993px;font-family:'GFS Baskerville';-inkscape-font-specification:'GFS Baskerville';font-variant-ligatures:normal;font-variant-caps:normal;font-variant-numeric:normal;font-variant-east-asian:normal;fill:#fcf0c8;fill-opacity:1;stroke-width:0.350226"
         id="path2774" />
      <path
         d="m 144.74851,225.84643 -3.38477,9.17841 h 6.7819 z m -1.40826,-2.45828 h 2.82888 l 7.02895,18.44329 h -2.59416 l -1.68003,-4.73127 h -8.31369 l -1.68003,4.73127 h -2.63123 z"
         style="font-style:normal;font-variant:normal;font-weight:normal;font-stretch:normal;font-size:25.2993px;font-family:'GFS Baskerville';-inkscape-font-specification:'GFS Baskerville';font-variant-ligatures:normal;font-variant-caps:normal;font-variant-numeric:normal;font-variant-east-asian:normal;fill:#fcf0c8;fill-opacity:1;stroke-width:0.350226"
         id="path2776" />
      <path
         d="m 161.75559,225.43877 v 14.34204 h 3.01418 q 3.81713,0 5.58363,-1.72944 1.77886,-1.72945 1.77886,-5.46011 0,-3.70595 -1.77886,-5.42304 -1.7665,-1.72945 -5.58363,-1.72945 z m -2.49534,-2.05062 h 5.12657 q 5.36128,0 7.86897,2.23592 2.50769,2.22357 2.50769,6.96719 0,4.76833 -2.52004,7.00425 -2.52005,2.23593 -7.85662,2.23593 h -5.12657 z"
         style="font-style:normal;font-variant:normal;font-weight:normal;font-stretch:normal;font-size:25.2993px;font-family:'GFS Baskerville';-inkscape-font-specification:'GFS Baskerville';font-variant-ligatures:normal;font-variant-caps:normal;font-variant-numeric:normal;font-variant-east-asian:normal;fill:#fcf0c8;fill-opacity:1;stroke-width:0.350226"
         id="path2778" />
      <path
         d="m 185.54743,239.6051 c -0.0253,0 -0.0253,-0.0253 -0.0253,-0.0506 0,-0.1265 0.27829,-0.45539 0.86017,-1.03727 0.88548,-0.88548 1.49266,-1.49266 1.79625,-1.84685 0.63249,-0.68308 0.93608,-1.44206 0.93608,-2.30224 0,-0.91077 -0.40479,-1.66975 -1.23967,-2.25163 -0.53128,-0.37949 -1.16376,-0.55659 -1.89744,-0.55659 -0.88548,0 -1.66976,0.22769 -2.35284,0.70838 -0.96137,0.65778 -1.44206,1.51796 -1.44206,2.58053 0,0.32889 0.0506,0.63248 0.1518,0.96137 0.32889,1.03727 1.01197,1.54326 1.99864,1.56856 0.32889,0 0.58189,-0.1012 0.78428,-0.27829 0.17709,-0.1518 0.25299,-0.2783 0.25299,-0.37949 0,-0.0253 0,-0.0253 -0.0253,-0.0506 -1.03727,-0.0759 -1.59385,-0.58188 -1.66975,-1.51796 -0.0759,-0.93607 0.78428,-1.87215 1.72035,-1.87215 1.03727,0 1.64446,0.48069 1.82155,1.41676 0.0506,0.2277 0.0759,0.45539 0.0759,0.65779 0,0.70838 -0.30359,1.36616 -0.88548,1.94804 l -3.79489,3.6684 v 0.86018 l 6.62842,-0.0253 v -2.20104 z"
         style="font-style:normal;font-variant:normal;font-weight:normal;font-stretch:normal;font-size:25.2993px;font-family:'GFS Baskerville';-inkscape-font-specification:'GFS Baskerville';font-variant-ligatures:normal;font-variant-caps:normal;font-variant-numeric:normal;font-variant-east-asian:normal;fill:#fcf0c8;fill-opacity:1;stroke-width:0.350226"
         id="path2780" />
      <path
         d="m 203.8674,241.52784 c 0,-0.27829 -0.1265,-0.40478 -0.40479,-0.40478 -0.58188,0 -0.93607,-0.0759 -1.11317,-0.2277 -0.22769,-0.17709 -0.32889,-0.55658 -0.32889,-1.13847 v -5.92003 c 0,-0.53129 0.1265,-0.88548 0.35419,-1.03727 0.1771,-0.1012 0.53129,-0.1518 1.08787,-0.1518 0.27829,0 0.40479,-0.1265 0.40479,-0.40479 0,-0.27829 -0.1265,-0.40479 -0.40479,-0.40479 h -5.18636 c -0.37949,0 -0.58188,0.1265 -0.58188,0.40479 0,0.27829 0.1265,0.40479 0.40479,0.40479 0.55658,0 0.96137,0.0759 1.18907,0.20239 0.32889,0.1771 0.50598,0.55659 0.50598,1.08787 l -0.0253,5.84414 c 0,0.55659 -0.15179,0.93608 -0.48068,1.11317 -0.253,0.1518 -0.65779,0.2277 -1.18907,0.2277 -0.27829,0 -0.40479,0.12649 -0.40479,0.40478 0,0.253 0.20239,0.37949 0.58188,0.37949 h 5.18636 c 0.27829,0 0.40479,-0.12649 0.40479,-0.37949 z"
         style="font-style:normal;font-variant:normal;font-weight:normal;font-stretch:normal;font-size:25.2993px;font-family:'GFS Baskerville';-inkscape-font-specification:'GFS Baskerville';font-variant-ligatures:normal;font-variant-caps:normal;font-variant-numeric:normal;font-variant-east-asian:normal;fill:#fcf0c8;fill-opacity:1;stroke-width:0.350226"
         id="path2782" />
    </g>
  </g>
</svg>
