<svg version="1.1"
     baseProfile="full"
     width="100" height="100"
     xmlns="http://www.w3.org/2000/svg">
  <style>
    polygon,
    rect {
      stroke: red;
      stroke-width: 1px; 
      <!-- stroke-linecap: round; -->
      <!-- stroke-linejoin: round; -->
      fill: red;
    }
  </style>
  <polygon points="
    10 14
    12 12
    16 10
    20 10
    24 12
    26 14
    24 14
    24 36
    26 36
    26 44
    10 44
    10 36
    12 36
    12 14
    10 14
  "></polygon>
  <rect x="8" y="16" width="1" height="4"></rect>
  <rect x="8" y="24" width="1" height="4"></rect>
  <rect x="8" y="32" width="1" height="4"></rect>
  <rect x="8" y="40" width="1" height="4"></rect>
  <rect x="27" y="16" width="1" height="4"></rect>
  <rect x="27" y="24" width="1" height="4"></rect>
  <rect x="27" y="32" width="1" height="4"></rect>
  <rect x="27" y="40" width="1" height="4"></rect>
</svg>